<svg xmlns="http://www.w3.org/2000/svg" width="24" height="24" viewBox="0 0 24 24" fill="none" stroke="currentColor" stroke-width="1.8" stroke-linecap="round" stroke-linejoin="round">
  <path d="M12 20c-1.5-4.2-.9-7.5 0-10.5.9 3 1.5 6.3 0 10.5Z"/><path d="M12 17c-3.9-1.2-6.4-3.4-7.8-6.7 3.4.3 6.1 1.6 7.8 4.2"/><path d="M12 17c3.9-1.2 6.4-3.4 7.8-6.7-3.4.3-6.1 1.6-7.8 4.2"/><path d="M12 11.5C9.2 9.6 8.1 7.1 8.4 4c2 .7 3.1 2.1 3.6 4.1.5-2 1.6-3.4 3.6-4.1.3 3.1-.8 5.6-3.6 7.5Z"/><path d="M4 20h16"/>
</svg>
